<?xml version="1.0" encoding="UTF-8"?>
<svg xmlns="http://www.w3.org/2000/svg" xmlns:xlink="http://www.w3.org/1999/xlink" width="32pt" height="32pt" viewBox="0 0 32 32" version="1.1">
<g id="surface1">
<path style="stroke:rgb(3, 3, 3);fill-rule:nonzero;fill:rgb(148, 217, 238);fill-opacity:1;" d="M 25.46875 12.90625 C 24.644531 12.90625 23.855469 13.0625 23.125 13.34375 C 22.554688 12.074219 22.0625 10.734375 21.816406 9.488281 C 21.421875 7.488281 19.652344 6.035156 17.609375 6.035156 C 17.09375 6.035156 16.671875 6.453125 16.671875 6.972656 C 16.671875 7.488281 17.09375 7.910156 17.609375 7.910156 C 17.832031 7.910156 18.050781 7.941406 18.257812 7.996094 C 18.886719 8.171875 19.421875 8.597656 19.730469 9.167969 C 19.707031 9.203125 19.683594 9.234375 19.660156 9.269531 L 19.371094 9.761719 L 17.894531 12.242188 L 10.023438 12.242188 L 9.574219 11.117188 L 9.761719 11.117188 C 10.28125 11.117188 10.699219 10.695312 10.699219 10.179688 C 10.699219 9.660156 10.28125 9.242188 9.761719 9.242188 L 6.53125 9.242188 C 6.011719 9.242188 5.59375 9.660156 5.59375 10.179688 C 5.59375 10.695312 6.011719 11.117188 6.53125 11.117188 L 7.558594 11.117188 L 8.375 13.175781 C 7.789062 13 7.171875 12.90625 6.53125 12.90625 C 2.929688 12.90625 0 15.835938 0 19.4375 C 0 23.039062 2.929688 25.964844 6.53125 25.964844 C 9.8125 25.964844 12.535156 23.53125 12.992188 20.375 L 14.710938 20.375 C 15.042969 20.375 15.351562 20.199219 15.519531 19.917969 L 20.445312 11.621094 C 20.734375 12.515625 21.097656 13.414062 21.484375 14.269531 C 19.9375 15.464844 18.941406 17.335938 18.941406 19.4375 C 18.941406 23.039062 21.871094 25.964844 25.46875 25.964844 C 29.070312 25.964844 32 23.039062 32 19.4375 C 32 15.835938 29.070312 12.90625 25.46875 12.90625 Z M 6.53125 20.375 L 11.089844 20.375 C 10.652344 22.492188 8.773438 24.089844 6.53125 24.089844 C 3.964844 24.089844 1.875 22.003906 1.875 19.4375 C 1.875 16.871094 3.964844 14.78125 6.53125 14.78125 C 8.773438 14.78125 10.652344 16.382812 11.089844 18.5 L 6.53125 18.5 C 6.011719 18.5 5.59375 18.917969 5.59375 19.4375 C 5.59375 19.953125 6.011719 20.375 6.53125 20.375 Z M 14.179688 18.5 L 12.992188 18.5 C 12.773438 16.992188 12.039062 15.652344 10.976562 14.660156 C 10.964844 14.625 10.953125 14.585938 10.941406 14.546875 L 10.769531 14.117188 L 16.78125 14.117188 Z M 25.46875 24.089844 C 22.902344 24.089844 20.816406 22.003906 20.816406 19.4375 C 20.816406 18.078125 21.402344 16.851562 22.335938 16 C 23.488281 18.203125 24.613281 19.847656 24.699219 19.96875 C 24.882812 20.234375 25.171875 20.375 25.472656 20.375 C 25.65625 20.375 25.839844 20.320312 26.003906 20.207031 C 26.429688 19.914062 26.535156 19.332031 26.242188 18.90625 C 26.222656 18.875 25.085938 17.222656 23.953125 15.039062 C 24.429688 14.875 24.9375 14.78125 25.46875 14.78125 C 28.035156 14.78125 30.125 16.871094 30.125 19.4375 C 30.125 22.003906 28.035156 24.089844 25.46875 24.089844 Z M 25.46875 24.089844 "/>
</g>
</svg>
